<svg width="85" height="85" viewBox="0 0 85 85" fill="none" xmlns="http://www.w3.org/2000/svg">
<path d="M61.9792 23.0209H62.0146M24.7917 7.08337H60.2083C69.9884 7.08337 77.9167 15.0117 77.9167 24.7917V60.2084C77.9167 69.9884 69.9884 77.9167 60.2083 77.9167H24.7917C15.0116 77.9167 7.08333 69.9884 7.08333 60.2084V24.7917C7.08333 15.0117 15.0116 7.08337 24.7917 7.08337ZM56.6667 40.2688C57.1037 43.2163 56.6003 46.2266 55.2279 48.8716C53.8555 51.5165 51.6841 53.6613 49.0224 55.001C46.3608 56.3406 43.3445 56.8069 40.4026 56.3335C37.4606 55.8602 34.7429 54.4712 32.6359 52.3642C30.5289 50.2571 29.1399 47.5394 28.6665 44.5975C28.1931 41.6555 28.6594 38.6392 29.9991 35.9776C31.3387 33.316 33.4836 31.1445 36.1285 29.7721C38.7734 28.3998 41.7837 27.8963 44.7312 28.3334C47.7378 28.7792 50.5213 30.1802 52.6706 32.3295C54.8198 34.4787 56.2208 37.2622 56.6667 40.2688Z" stroke="#1E1E1E" stroke-width="4" stroke-linecap="round" stroke-linejoin="round"/>
</svg>
