<svg width="87" height="87" viewBox="0 0 87 87" fill="none" xmlns="http://www.w3.org/2000/svg">
<path d="M58 29C63.7685 29 69.3007 31.2915 73.3796 35.3704C77.4585 39.4493 79.75 44.9815 79.75 50.75V76.125H65.25V50.75C65.25 48.8272 64.4862 46.9831 63.1265 45.6235C61.7669 44.2638 59.9228 43.5 58 43.5C56.0772 43.5 54.2331 44.2638 52.8735 45.6235C51.5138 46.9831 50.75 48.8272 50.75 50.75V76.125H36.25V50.75C36.25 44.9815 38.5415 39.4493 42.6204 35.3704C46.6993 31.2915 52.2315 29 58 29Z" stroke="#1E1E1E" stroke-width="4" stroke-linecap="round" stroke-linejoin="round"/>
<path d="M21.75 32.625H7.25V76.125H21.75V32.625Z" stroke="#1E1E1E" stroke-width="4" stroke-linecap="round" stroke-linejoin="round"/>
<path d="M14.5 21.75C18.5041 21.75 21.75 18.5041 21.75 14.5C21.75 10.4959 18.5041 7.25 14.5 7.25C10.4959 7.25 7.25 10.4959 7.25 14.5C7.25 18.5041 10.4959 21.75 14.5 21.75Z" stroke="#1E1E1E" stroke-width="4" stroke-linecap="round" stroke-linejoin="round"/>
</svg>
